<svg id="Layer_2" data-name="Layer 2" xmlns="http://www.w3.org/2000/svg" viewBox="0 0 1133.86 1133.86"><title>desenho</title><rect width="1133.86" height="1133.86" fill="#fff"/><g id="Color"><path d="M541.44,88.6C344,96,185.6,255.92,180.68,454" fill="none" stroke="#231f20" stroke-width="1.5" stroke-dasharray="4.28 4.28"/><path d="M952.37,611.16a.93.93,0,0,1,0,.1A.93.93,0,0,0,952.37,611.16Z" fill="#fff" stroke="#231f20" stroke-miterlimit="10" stroke-width="1.5"/><path d="M164.5,611.26l-.05-.1Z" fill="#fff" stroke="#231f20" stroke-miterlimit="10" stroke-width="1.5"/><path d="M930.57,449.21C923.19,251.79,763.24,93.38,565.2,88.45" fill="none" stroke="#231f20" stroke-width="1.5" stroke-dasharray="4.28 4.28"/><path d="M555.7,126a53.5,53.5,0,1,0-53.49-53.49A53.49,53.49,0,0,0,555.7,126" fill="#fff" stroke="#231f20" stroke-miterlimit="10" stroke-width="1.5"/><path d="M311.71,201.05a53.49,53.49,0,1,0-53.5-53.49,53.49,53.49,0,0,0,53.5,53.49" fill="#fff" stroke="#231f20" stroke-miterlimit="10" stroke-width="1.5"/><path d="M258.21,147.56a53.5,53.5,0,1,0,53.5-53.49,53.49,53.49,0,0,0-53.5,53.49" fill="#fff" stroke="#231f20" stroke-miterlimit="10" stroke-width="1.5"/><path d="M311.71,201.05a53.49,53.49,0,1,0-53.5-53.49,53.49,53.49,0,0,0,53.5,53.49" fill="#fff" stroke="#231f20" stroke-miterlimit="10" stroke-width="1.5"/><path d="M365.12,179.59l-11.95-14.53V120.59a6.68,6.68,0,0,0-6.78-6.56h-69.2a6.69,6.69,0,0,0-6.79,6.56v44.47l-11.94,14.53a.68.68,0,0,0-.11.71l1.25,3.14a.79.79,0,0,0,.27.33l4.53,3.14a.74.74,0,0,0,.44.14h93.9a.79.79,0,0,0,.44-.14l4.53-3.14a.77.77,0,0,0,.26-.33l1.26-3.14a.7.7,0,0,0-.11-.71" fill="#fff" stroke="#231f20" stroke-miterlimit="10" stroke-width="1.5"/><path d="M185.57,375.19a53.49,53.49,0,1,0-53.49-53.49,53.49,53.49,0,0,0,53.49,53.49" fill="#fff" stroke="#231f20" stroke-miterlimit="10" stroke-width="1.5"/><path d="M174.5,290.23a6.17,6.17,0,1,0-6.17,6.18,6.18,6.18,0,0,0,6.17-6.18" fill="#fff" stroke="#231f20" stroke-miterlimit="10" stroke-width="1.5"/><path d="M183.4,324.33c-2.18.69-3.43-1.32-3.74-2.5S176.1,309,176.1,309s-.54-2.15-1.69-2.58L182.46,335H175.9v21.51a2.63,2.63,0,0,1-2.81,2.82,2.88,2.88,0,0,1-3-2.92V335h-2.71v21.51a2.63,2.63,0,0,1-2.81,2.82,2.89,2.89,0,0,1-3-2.92V335.08h-6.7l7.2-28.65c-1.17.4-1.72,2.59-1.72,2.59s-3.25,11.64-3.56,12.81-1.56,3.19-3.74,2.5-1.4-3.61-1.4-3.61l5-17.27s1.64-5.3,7.08-5.3h8.89c5.45,0,7.09,5.3,7.09,5.3l5,17.27S185.57,323.64,183.4,324.33Zm-15.07-27.92a6.19,6.19,0,1,0-6.17-6.18A6.18,6.18,0,0,0,168.33,296.41Z" fill="#fff" stroke="#231f20" stroke-miterlimit="10" stroke-width="1.5"/><path d="M207.23,310a4.5,4.5,0,0,1-1.2,3.09,4,4,0,0,1-5.83,0A4.46,4.46,0,0,1,199,310c0-3.17,3.68-5.88,4.12-8.56h0c.44,2.68,4.11,5.39,4.11,8.56" fill="#fff" stroke="#231f20" stroke-miterlimit="10" stroke-width="1.5"/><path d="M208.93,290.19a5.81,5.81,0,1,0-5.8,6.14,6,6,0,0,0,5.8-6.14" fill="#fff" stroke="#231f20" stroke-miterlimit="10" stroke-width="1.5"/><path d="M217.43,305.7v18.75a2.67,2.67,0,1,1-5.33,0V306.09h-1.37v49.83a3.26,3.26,0,1,1-6.5,0V327h-2.18v28.9a3.26,3.26,0,1,1-6.5,0V306.09h-1.39v18.36a2.69,2.69,0,1,1-5.37,0V305.58a7.68,7.68,0,0,1,7.41-8h13.73C214.43,297.62,217.43,301.62,217.43,305.7Zm-14.3-9.37a6.16,6.16,0,1,0-5.8-6.14A6,6,0,0,0,203.13,296.33Z" fill="#fff" stroke="#231f20" stroke-miterlimit="10" stroke-width="1.5"/><path d="M802.63,201.65a53.49,53.49,0,1,0-53.49-53.49,53.49,53.49,0,0,0,53.49,53.49" fill="#fff" stroke="#231f20" stroke-miterlimit="10" stroke-width="1.5"/><path d="M926.18,375.19a53.49,53.49,0,1,0-53.49-53.49,53.48,53.48,0,0,0,53.49,53.49" fill="#fff" stroke="#231f20" stroke-miterlimit="10" stroke-width="1.5"/><path d="M587,67.16a23.94,23.94,0,0,0-1.36-6.07,16.73,16.73,0,0,0-25.76-7.93c-1.36.94-3.61,3.1-4.14,3.1-.35,0-2.73-2-4.1-3.1-5.15-4.06-15.88-4.6-21.7,1.57-3.82,4.05-5.26,9.08-5.58,14.48A30.93,30.93,0,0,0,530,86.12c6.3,8.85,14.45,15.92,23.17,22.31a4.16,4.16,0,0,0,2.52.83h0a3,3,0,0,0,.51-.09,3.26,3.26,0,0,0,.61-.11,3.75,3.75,0,0,0,1.09-.59h0c4.92-3.86,9.94-7.64,14.54-11.87a48.12,48.12,0,0,0,12.7-17.69c.29-.75.56-1.49.78-2.24A24.48,24.48,0,0,0,587,67.16Z" fill="#fff" stroke="#231f20" stroke-miterlimit="10" stroke-width="1.5"/><path d="M587,67.16a23.94,23.94,0,0,0-1.36-6.07,16.73,16.73,0,0,0-25.76-7.93c-1.36.94-3.61,3.1-4.14,3.1-.35,0-2.73-2-4.1-3.1-5.15-4.06-15.88-4.6-21.7,1.57-3.82,4.05-5.26,9.08-5.58,14.48A30.93,30.93,0,0,0,530,86.12c6.3,8.85,14.45,15.92,23.17,22.31a4.16,4.16,0,0,0,2.52.83h0a3,3,0,0,0,.51-.09,3.26,3.26,0,0,0,.61-.11,3.75,3.75,0,0,0,1.09-.59h0c4.92-3.86,9.94-7.64,14.54-11.87a48.12,48.12,0,0,0,12.7-17.69c.29-.75.56-1.49.78-2.24A24.48,24.48,0,0,0,587,67.16Z" fill="#fff" stroke="#231f20" stroke-miterlimit="10" stroke-width="1.5"/><path d="M331.49,180.64a.77.77,0,0,1-.6.29H292.53a.76.76,0,0,1-.6-.29.67.67,0,0,1-.12-.64l1.64-5.52a.78.78,0,0,1,.73-.53h35.05a.76.76,0,0,1,.73.53l1.65,5.52a.73.73,0,0,1-.12.64" fill="#fff" stroke="#231f20" stroke-miterlimit="10" stroke-width="1.5"/><path d="M365,179.75l-12-14.53V120.75a6.68,6.68,0,0,0-6.78-6.56h-69.2a6.69,6.69,0,0,0-6.79,6.56v44.47l-11.94,14.53a.71.71,0,0,0-.12.71l1.26,3.14a.79.79,0,0,0,.27.33l4.53,3.14a.74.74,0,0,0,.43.14h93.91a.79.79,0,0,0,.44-.14l4.52-3.14a.79.79,0,0,0,.27-.33l1.26-3.14a.73.73,0,0,0-.11-.71" fill="#fff" stroke="#231f20" stroke-miterlimit="10" stroke-width="1.5"/><path d="M331.49,180.64a.77.77,0,0,1-.6.29H292.53a.76.76,0,0,1-.6-.29.67.67,0,0,1-.12-.64l1.64-5.52a.78.78,0,0,1,.73-.53h35.05a.76.76,0,0,1,.73.53l1.65,5.52a.73.73,0,0,1-.12.64" fill="#fff" stroke="#231f20" stroke-miterlimit="10" stroke-width="1.5"/><path d="M854.21,524.84h0" fill="#fff" stroke="#231f20" stroke-miterlimit="10" stroke-width="1.5"/><path d="M854.21,524.84h0" fill="#fff" stroke="#231f20" stroke-miterlimit="10" stroke-width="1.5"/><path d="M172.21,309.3a3.74,3.74,0,0,1-1.09,2.66,3.69,3.69,0,0,1-2.64,1.09,3.73,3.73,0,0,1-2.65-1.09,3.78,3.78,0,0,1-1.09-2.66c0-2.72,3.33-5,3.73-7.35h0c.4,2.31,3.73,4.63,3.73,7.35" fill="#fff" stroke="#231f20" stroke-miterlimit="10" stroke-width="1.5"/><path d="M964.07,313.56a7.81,7.81,0,0,0-1.4-3.95,3.43,3.43,0,0,0-3.57-1.33,7.26,7.26,0,0,0-3.8,2.26c-1.37,1.42-2.71,2.91-4,4.35l-1.21,1.33-3.85-1.48L939.05,312c-4.12-1.59-8.23-3.19-12.36-4.77a2.34,2.34,0,0,0-1.67,0l-10.95,4.5-5.25,2.16c-1.89.78-3.78,1.55-5.69,2.36l-.49-.59c-.87-1.05-1.78-2.14-2.76-3.14a24.65,24.65,0,0,0-3.7-3.29c-1.89-1.26-3.29-1.12-4.13-.79s-2,1.22-2.54,3.5a32.55,32.55,0,0,0-.54,3.73l-.06.54a17.05,17.05,0,0,0,2.59,11.07,29.81,29.81,0,0,0,8.93,8.9l.17.12.29.19h0a16.77,16.77,0,0,1,1.8,1.33,60,60,0,0,0,9.95,7.5,29,29,0,0,0,14.2,4.14l.56-.05,1.23-.09a25,25,0,0,0,9.21-2.47,43.73,43.73,0,0,0,10.88-7.38c.31-.26.6-.54.89-.82a13.27,13.27,0,0,1,1.91-1.61,34.86,34.86,0,0,0,8.61-7.53,19.65,19.65,0,0,0,3.71-7.08A22.37,22.37,0,0,0,964.07,313.56Zm-71,12.69a15.19,15.19,0,0,1-2.31-9.87l.06-.55a28.75,28.75,0,0,1,.5-3.49,2.9,2.9,0,0,1,1.4-2.18,1.4,1.4,0,0,1,.54-.1,3.69,3.69,0,0,1,1.86.7,22.63,22.63,0,0,1,3.4,3c.93.95,1.81,2,2.66,3l.55.67a2.34,2.34,0,0,0,.33.31L901,334.28A27.76,27.76,0,0,1,893.09,326.25ZM962,321.91a17.73,17.73,0,0,1-3.37,6.41,30.85,30.85,0,0,1-6.3,5.85l-1.21-16.35a2.8,2.8,0,0,0,.3-.31l1.24-1.37c1.29-1.42,2.62-2.9,4-4.3a5.45,5.45,0,0,1,2.82-1.72,1.56,1.56,0,0,1,1.72.65,5.94,5.94,0,0,1,1,3A20.23,20.23,0,0,1,962,321.91Z" fill="#fff" stroke="#231f20" stroke-miterlimit="10" stroke-width="1.5"/><path d="M822.68,132.62c5.32,4,4.82,8,4.82,8v41.73l-23.06,0h-5.85V138.66c.43-1.53,4.57-6,4.57-6a12.74,12.74,0,0,0,3.72-7.83H819a12.8,12.8,0,0,0,3.72,7.83h0" fill="#fff" stroke="#231f20" stroke-miterlimit="10" stroke-width="1.5"/><polygon points="805.96 139.88 822.66 139.88 822.66 176.43 803.44 176.43 803.44 139.88 805.96 139.88" fill="#fff" stroke="#231f20" stroke-miterlimit="10" stroke-width="1.5"/><path d="M822.53,123.27v-5.76a.92.92,0,0,0-.92-.92H804.49a.93.93,0,0,0-.93.92v5.76a.93.93,0,0,0,.93.92h17.12a.92.92,0,0,0,.92-.92" fill="#fff" stroke="#231f20" stroke-miterlimit="10" stroke-width="1.5"/><path d="M803.19,141.51h-23a2.41,2.41,0,0,0-2.4,2.4v4.86a2.4,2.4,0,0,0,2.06,2.36,2,2,0,0,0,.34,0h23a2.09,2.09,0,0,0,.35,0,2.4,2.4,0,0,0,2.05-2.36v-4.86a2.41,2.41,0,0,0-2.4-2.4" fill="#fff" stroke="#231f20" stroke-miterlimit="10" stroke-width="1.5"/><path d="M801.28,151.39H781.41v31h20.52v-31Z" fill="#fff" stroke="#231f20" stroke-miterlimit="10" stroke-width="1.5"/><polygon points="783.7 158.01 797.44 158.01 799.64 158.01 799.64 177.2 797.44 177.2 783.7 177.2 783.7 158.01" fill="#fff" stroke="#231f20" stroke-miterlimit="10" stroke-width="1.5"/><path d="M334.46,165h13.28a.91.91,0,0,0,.86-.94v-45a.91.91,0,0,0-.86-.94H275.68a.91.91,0,0,0-.87.94v45a.91.91,0,0,0,.87.94h58.78Z" fill="#fff" stroke="#231f20" stroke-miterlimit="10" stroke-width="1.5"/><polygon points="334.77 123.94 337.72 123.94 337.72 128.23 342.14 128.23 342.14 131.09 337.72 131.09 337.72 135.38 334.77 135.38 334.77 131.09 330.35 131.09 330.35 128.23 334.77 128.23 334.77 123.94" fill="#fff" stroke="#231f20" stroke-miterlimit="10" stroke-width="1.5"/><path d="M311.81,138.67a8.36,8.36,0,1,1,8.26-8.36,8.31,8.31,0,0,1-8.26,8.36m7.05,1.74H301.94a10.67,10.67,0,0,0-10.56,10.84V165h40.8V151.39a10.83,10.83,0,0,0-10.69-11Z" fill="#fff" stroke="#231f20" stroke-miterlimit="10" stroke-width="1.5"/><path d="M304.52,140.54v13.64a2.77,2.77,0,0,1,1.61,2.51s0,.07,0,.11h-5.53s0-.07,0-.11a2.77,2.77,0,0,1,1.61-2.51V140.49h2.33Z" fill="#fff" stroke="#231f20" stroke-miterlimit="10" stroke-width="1.5"/><path d="M321.4,140.62v7.26c2.48.4,4.46,2.12,5.78,5a17.15,17.15,0,0,1,1.19,3.91h-4.75v-.17H326c-.5-2.21-1.95-6.51-5.72-6.51s-5.41,4.28-6,6.51h2.42v.17H311.8a18,18,0,0,1,1.35-3.94c1.42-2.87,3.45-4.57,5.92-5v-7.39h2.33Z" fill="#fff" stroke="#231f20" stroke-miterlimit="10" stroke-width="1.5"/><path d="M207.23,310a4.5,4.5,0,0,1-1.2,3.09,4,4,0,0,1-5.83,0A4.46,4.46,0,0,1,199,310c0-3.17,3.68-5.88,4.12-8.56h0c.44,2.68,4.11,5.39,4.11,8.56" fill="#fff" stroke="#231f20" stroke-miterlimit="10" stroke-width="1.5"/><path d="M207.23,310a4.5,4.5,0,0,1-1.2,3.09,4,4,0,0,1-5.83,0A4.46,4.46,0,0,1,199,310c0-3.17,3.68-5.88,4.12-8.56h0c.44,2.68,4.11,5.39,4.11,8.56" fill="#fff" stroke="#231f20" stroke-miterlimit="10" stroke-width="1.5"/><path d="M464.7,730.49c-12.38-12.5-27.35-22.66-43.84-31-17.84-9-37-15.85-56.31-22.24-6.81-2.25-13.7-4.75-20.32-7.6h0c-.87-.37-1.74-.76-2.59-1.15a15.54,15.54,0,0,1-2-1.09,17,17,0,0,1-4.09-3.76c-.24-.29-.46-.58-.68-.89-.43-.61-.84-1.24-1.22-1.89s-.74-1.32-1.07-2a40.2,40.2,0,0,1-1.75-4.24c-.32-.93-.64-1.85-1-2.77C316.2,645.29,305,635.1,301.16,626q-3-7.05-5.67-14.17c-6.18-16.43-21.95-60.64-29.81-85a31.37,31.37,0,0,0-3.06-2l0,0c-.35-.2-.7-.39-1.06-.57-2.15-1.1-4.71-1.47-6.76-2.68h0c-.29-.18-.57-.38-.85-.59l-.16-.15a7,7,0,0,1-.64-.58l-.12-.12q-.33-.35-.63-.72l-.05-.07c-.22-.28-.44-.57-.64-.88-23.39-59.74-38.58-64.31-47.35-64.29l-.77,0h-.35l-1.14,0-.56,0-.6.05c-.26,0-.53.05-.79.09s-.3,0-.44.06c-.38,0-.75.12-1.13.19l-.36.07c-.42.08-.83.18-1.26.28h0l-.07,0-.29.09-.11,0-.29.1h0c-1.87.68-4.55,2-6.24,1.49-17.67-29-26.75-27.31-36-29a13.27,13.27,0,0,0-1.4.26h0l-.67.19h-.05l-.61.21-.11.05-.54.22-.18.1-.45.22-.29.17c-.11.07-.22.12-.32.19s-.37.25-.54.38l-.05,0A11.33,11.33,0,0,0,145,434.9c-.16.41-.29.82-.41,1.24a16.78,16.78,0,0,0-.5,2.54,31.23,31.23,0,0,0-.21,3.78,58.47,58.47,0,0,0,.64,7.84c.07.51.15,1,.23,1.52.11.73.23,1.45.35,2.17.17,1,.34,2,.51,3,.14.76.26,1.51.39,2.25.22,1.35.47,2.68.71,4,1,5.5,2.21,11,3.41,16.44q1.14,5.16,2.27,10.34t2.22,10.37c4.38,20.77,8.29,41.73,10.43,62.89h0c.08.83.24,1.73-.53,2.21h0l-.18.12c-1.18.52-2.14-1.1-2.75-1.85-8.26-10.26-15.66-19.71-24.45-31.47-7.7-10.31-15.22-20.78-24-30.17-9-9.65-28.9-28-40.19-19.58l-.39.16c-.2.09-.39.2-.58.3h0c-.18.1-.37.19-.54.3a10.67,10.67,0,0,0-1.15.85l-.09.09a7.58,7.58,0,0,0-.7.69h0a9.22,9.22,0,0,0-.62.78,10.55,10.55,0,0,0-1.36,2.65,11.9,11.9,0,0,0-.51,1.95,14.92,14.92,0,0,0-.22,2c0,.31,0,.63,0,.95s0,.64,0,1c0,.64.1,1.28.2,1.93s.21,1.28.35,1.92.31,1.28.5,1.91a34.1,34.1,0,0,0,3.07,7.14l4.59,8.09c2.29,4,4.58,8.1,6.92,12.13s4.73,8,7.19,12q5.3,8.52,10.41,17.15,3.42,5.76,6.78,11.54t6.69,11.6q2.26,4,4.51,7.93,3.77,6.63,7.5,13.26l3.06,5.42,4.71,8.36,4.72,8.33q2.6,4.57,5.21,9.13l3.33,5.8q2.73,4.73,5.5,9.43,8.46,14.43,17.36,28.6,1.29,2,2.59,4.08c1.57,2.44,3.14,4.88,4.74,7.3s3.29,5,5,7.48c1.25,1.85,2.5,3.69,3.77,5.52q3.81,5.51,7.74,10.92c2.63,3.62,5.29,7.2,8,10.75,6,7.89,13.3,15.09,22.72,20.3,20.72,11.47,40.77,23.76,61.82,34.82,10.66,5.6,21,11.65,31.23,17.8L327.18,801c8.16,4.93,16.14,10,23.82,15.34q3.84,2.67,7.57,5.44c3.72,2.78,7.37,5.63,10.91,8.6q3.54,3,6.94,6.05c3.4,3.11,6.69,6.32,9.86,9.67,18,19.07,24.29,40.58,22.26,64.32C407.56,922,384.91,1081.84,381,1112h172.8C535,838.38,524.43,790.8,464.7,730.49Z" fill="#fff" stroke="#231f20" stroke-miterlimit="10" stroke-width="1.5"/><path d="M301.1,649.31c-14.57-7.14-27.16-16.54-40.09-25.52-18.08-12.54-36.35-24.81-57-34.22-5.6-2.55-11.31-4.93-17.08-7.19A22.41,22.41,0,0,0,171.2,582a22.41,22.41,0,0,1,15.71.37c5.77,2.26,11.48,4.64,17.08,7.19,20.67,9.41,38.94,21.68,57,34.22,12.93,9,25.52,18.38,40.09,25.52,8.52,4.18,17.6,7.88,25.71,10.88C318.7,657.19,309.62,653.49,301.1,649.31Z" fill="#fff" stroke="#231f20" stroke-miterlimit="10" stroke-width="1.5"/><path d="M285.37,726.65c-22.5-15.86-42.59-33.92-64.47-50.34a537.21,537.21,0,0,1-42.37-35.24c-9.87-9.12-19-18.79-23.53-31-3.27-8.75-.9-16,6.35-22.55a23.37,23.37,0,0,1,7.63-4.25,15.83,15.83,0,0,0,3.81-1.73,15.83,15.83,0,0,1-3.81,1.73,23.27,23.27,0,0,0-7.63,4.25c-7.25,6.51-9.62,13.8-6.35,22.55,4.56,12.16,13.66,21.83,23.53,31a537.21,537.21,0,0,0,42.37,35.24c21.88,16.42,42,34.49,64.47,50.34,2,1.39,4,2.77,6.09,4.07l.11,0-.11,0C289.38,729.41,287.36,728,285.37,726.65Z" fill="#fff" stroke="#231f20" stroke-miterlimit="10" stroke-width="1.5"/><path d="M289.54,629.34c-4.62-13.39-16-40.1-20.22-53.63-7-22.15-13.49-43.56-17.64-57.25-2.25-3.36-3.47-8.06-4.92-11.27-2.15-4.75-4.35-9.47-6.65-14.14-5.63-11.41-11.85-25.24-22-33.45a23.37,23.37,0,0,0-14.55-5.45l.77,0" fill="none" stroke="#231f20" stroke-miterlimit="10" stroke-width="1.5"/><path d="M226.21,592.91c.92-.71.3-1.91.08-2.86-3.66-15.65-7.49-31.27-11-46.95-3-13.33-6-26.65-10.58-39.66-2.88-8.23-10.24-31.78-14.84-46.74l-.2-.06c-.73-.32-1.26-1.23-2.17-2.9-3.28-6-7.06-11.74-12.48-16.59-4.21-3.75-9.7-7.4-15.17-8.93a14.86,14.86,0,0,0-7.4-.24,13.27,13.27,0,0,1,1.4-.26" fill="none" stroke="#231f20" stroke-miterlimit="10" stroke-width="1.5"/><path d="M563.05,1112h172.8c-4-30.12-26.59-189.94-27.57-201.51-2-23.74,4.22-45.25,22.26-64.32,3.16-3.35,6.46-6.56,9.85-9.67q3.4-3.09,7-6.05c3.54-3,7.18-5.82,10.91-8.6q3.74-2.77,7.57-5.44C773.49,811,781.48,806,789.64,801l10.23-6.16c10.25-6.15,20.57-12.2,31.23-17.8,21-11.06,41.1-23.35,61.81-34.82,9.42-5.21,16.68-12.41,22.73-20.3q4.08-5.33,8-10.75t7.74-10.92q1.89-2.74,3.77-5.52,2.52-3.72,5-7.48t4.73-7.3q1.3-2,2.6-4.08c5.95-9.43,11.71-19,17.36-28.6q2.76-4.71,5.49-9.43,1.68-2.89,3.34-5.8,2.61-4.56,5.21-9.13l4.72-8.33,4.71-8.36c1-1.81,2-3.61,3.05-5.42q3.75-6.63,7.51-13.26,2.25-4,4.51-7.93,3.33-5.8,6.68-11.6t6.78-11.54q5.13-8.62,10.42-17.15,3.69-6,7.19-12c2.34-4,4.63-8.08,6.92-12.13,1.53-2.69,3.05-5.39,4.59-8.09A34.1,34.1,0,0,0,1049,500c.19-.63.35-1.27.5-1.91s.26-1.28.35-1.92.16-1.29.2-1.93q0-.48,0-1c0-.32,0-.64,0-.95a14.92,14.92,0,0,0-.22-2,13,13,0,0,0-.51-1.95,10.55,10.55,0,0,0-1.36-2.65,9.22,9.22,0,0,0-.62-.78h0a7.58,7.58,0,0,0-.7-.69l-.1-.09a10.54,10.54,0,0,0-1.14-.85l-.54-.3h0c-.18-.1-.37-.21-.57-.3l-.39-.16c-11.29-8.45-31.14,9.93-40.19,19.58-8.8,9.39-16.32,19.86-24,30.17-8.79,11.76-16.19,21.21-24.45,31.47-.61.75-1.57,2.37-2.75,1.85l-.19-.12h0c-.77-.48-.62-1.38-.53-2.21h0c2.14-21.16,6.05-42.12,10.42-62.89q1.1-5.19,2.23-10.37t2.27-10.34c1.2-5.47,2.39-10.94,3.4-16.44.25-1.34.5-2.67.72-4,.12-.74.25-1.49.38-2.25.17-1,.35-2,.52-3,.12-.72.24-1.44.35-2.17.08-.51.15-1,.22-1.52a56.9,56.9,0,0,0,.65-7.84,31.23,31.23,0,0,0-.21-3.78,16.78,16.78,0,0,0-.5-2.54c-.12-.42-.26-.83-.41-1.24a11.4,11.4,0,0,0-3.67-5.14l0,0-.54-.38c-.11-.07-.22-.12-.32-.19L967,429l-.45-.22-.19-.1-.53-.22-.11-.05-.61-.21H965l-.66-.19h0a13.27,13.27,0,0,0-1.4-.26c-9.27,1.67-18.36,0-36,29-1.7.55-4.37-.81-6.24-1.49h0l-.29-.1-.11,0L920,455l-.08,0h0c-.42-.1-.84-.2-1.25-.28l-.36-.07c-.38-.07-.76-.14-1.13-.19l-.44-.06c-.26,0-.53-.07-.79-.09l-.6-.05-.56,0-1.14,0h-.36l-.77,0c-8.77,0-24,4.55-47.34,64.29-.2.31-.42.6-.64.88l0,.07c-.2.25-.42.49-.63.72l-.12.12a8.6,8.6,0,0,1-.64.58l-.17.15a9.75,9.75,0,0,1-.84.59h0c-2.06,1.21-4.61,1.58-6.77,2.68l-1.06.57,0,0a34,34,0,0,0-3.06,2c-7.85,24.33-23.62,68.54-29.8,85-1.79,4.75-3.7,9.47-5.67,14.17-3.83,9.12-15,19.31-28.67,25.9-.32.92-.64,1.84-1,2.77a38.12,38.12,0,0,1-1.74,4.24c-.33.69-.69,1.36-1.07,2s-.79,1.28-1.22,1.89c-.22.31-.45.6-.68.89a17,17,0,0,1-4.09,3.76,16.22,16.22,0,0,1-2,1.09c-.86.39-1.73.78-2.6,1.15h0c-6.62,2.85-13.51,5.35-20.32,7.6-19.34,6.39-38.47,13.26-56.31,22.24-16.49,8.3-31.47,18.46-43.85,31C592.39,790.8,581.86,838.38,563.05,1112Z" fill="#fff" stroke="#231f20" stroke-miterlimit="10" stroke-width="1.5"/><path d="M815.72,649.31c14.56-7.14,27.16-16.54,40.09-25.52,18.08-12.54,36.35-24.81,57-34.22,5.59-2.55,11.31-4.93,17.08-7.19a22.38,22.38,0,0,1,15.7-.37,22.38,22.38,0,0,0-15.7.37c-5.77,2.26-11.49,4.64-17.08,7.19-20.67,9.41-38.94,21.68-57,34.22-12.93,9-25.52,18.38-40.09,25.52-8.52,4.18-17.6,7.88-25.71,10.88C798.12,657.19,807.2,653.49,815.72,649.31Z" fill="#fff" stroke="#231f20" stroke-miterlimit="10" stroke-width="1.5"/><path d="M831.45,726.65c22.5-15.86,42.59-33.92,64.47-50.34a539,539,0,0,0,42.37-35.24c9.87-9.12,19-18.79,23.52-31,3.28-8.75.91-16-6.34-22.55a23.37,23.37,0,0,0-7.63-4.25,15.83,15.83,0,0,1-3.81-1.73,15.83,15.83,0,0,0,3.81,1.73,23.37,23.37,0,0,1,7.63,4.25c7.25,6.51,9.62,13.8,6.34,22.55-4.56,12.16-13.65,21.83-23.52,31a539,539,0,0,1-42.37,35.24c-21.88,16.42-42,34.49-64.47,50.34-2,1.39-4,2.77-6.09,4.07l-.11,0,.11,0C827.44,729.41,829.46,728,831.45,726.65Z" fill="#fff" stroke="#231f20" stroke-miterlimit="10" stroke-width="1.5"/><path d="M827.28,629.34c4.61-13.39,16-40.1,20.22-53.63,7-22.15,13.49-43.56,17.64-57.25,2.25-3.36,3.47-8.06,4.92-11.27,2.15-4.75,4.35-9.47,6.65-14.14,5.63-11.41,11.84-25.24,22-33.45a23.37,23.37,0,0,1,14.55-5.45l-.78,0" fill="none" stroke="#231f20" stroke-miterlimit="10" stroke-width="1.5"/><path d="M890.61,592.91c-.93-.71-.3-1.91-.08-2.86,3.66-15.65,7.49-31.27,11-46.95,3-13.33,6-26.65,10.58-39.66,2.88-8.23,10.24-31.78,14.84-46.74l.2-.06c.73-.32,1.26-1.23,2.17-2.9,3.28-6,7.05-11.74,12.48-16.59,4.21-3.75,9.7-7.4,15.17-8.93a14.86,14.86,0,0,1,7.4-.24,13.27,13.27,0,0,0-1.4-.26" fill="none" stroke="#231f20" stroke-miterlimit="10" stroke-width="1.5"/><path d="M873.37,443.45c-.11-2-.19-3.18-.19-3.18-.11-1.51-.26-3-.39-4.53a316.14,316.14,0,0,0-31.94-113.23q-3.14-6.3-6.53-12.44a319.42,319.42,0,0,0-32.43-47.73,323.18,323.18,0,0,0-22.46-24.62q-8.05-8-16.64-15.32a318.39,318.39,0,0,0-392.43-17.06q-7.41,5.31-14.5,11c-2,1.65-4.07,3.32-6.07,5-1.82,1.54-3.62,3.11-5.4,4.69-2.58,2.3-5.14,4.63-7.65,7-2.94,2.79-5.81,5.63-8.64,8.52A319,319,0,0,0,252,368.41,316,316,0,0,0,242.84,405c-.5,2.7-1,5.41-1.42,8.13a2.47,2.47,0,0,0-.35,2.14q-2.17,14.13-3.08,28.65c-.42,6.7-.66,13.46-.66,20.27,0,115.55,61.57,216.71,153.68,272.5q6.71,4,13.63,7.8a317.12,317.12,0,0,0,143.54,38h15A306.46,306.46,0,0,0,712.46,740.2C799.77,688.83,860,595.66,873.18,488.15c.42-3.44.67-7.51.8-11.8C874.35,463.92,873.7,449.67,873.37,443.45Z" fill="#fff" stroke="#231f20" stroke-miterlimit="10" stroke-width="1.5"/><path d="M238,445c.61-9.67,1.18-18.88,6.27-18.88s4.17-4,6.22-3.69,3.86.05,3.63,2.55-1.58.46-2.6,8.87-4.42,7.5.46,11.37,9.19,6.59,11.24,6.59a47,47,0,0,1,7.31,1.35c0,1-2.79,6.58-3.5,8.18-1.9-.31-9.08-1.53-12.22-2.7-3.64-1.37-11.83-.91-11.83-5.92S241.39,445.87,238,445Zm635.38-.49c-3.13-3.57-8.69-7.28-15.8-12-8.19-5.46-7.51-6.14-13.64-17.74s-4.78-11.59-11.6-21.83-6.14-12.28-3.41-13.64,3.41,0,8.87,3.41,7.5,12.28,10.23,19.78,19.78,28.65,24.55,34.11c.08.08.15.14.22.22a316.2,316.2,0,0,0-31.94-113.23,16.53,16.53,0,0,0-7.15,3.87s-8.19,3.41-13,4.77-8.87,1.37-12.28,3.41-2,4.78-2.72,8.24,6.13,4.72,15,4.72,7.51.69,8.87,7.51-1.36,15-3.41,16.37-8.87-4.78-8.87-4.78c-4.77-1.36-8.87-2-23.19-3.41s-3.41,1.37-6.14,8.19-2.73,4.77-10.91,4.09-5.46-2.73-16.37-8.18-6.83-6.14-9.87-17.74-9.92-4.77-9.92-4.77-9.55,7.5-16.37,8.18-11.45-6.72-18.27-.58-17,10.91-21.83,16.37-8.18,13-10.91,19.1-6.14,15.69-8.19,21.14-2.72,21.83,0,24.56.69,11.6,13,20.46,14.58,8.19,26.73,8.87,10.65,4,19.51.59,1.37-7.51,8.87-3.41,10.24-.06,13,5.09,5.46,9.23,4.09,15.37c0,0,10.92,10.23,10.24,36.15s2.72,52.53,2.72,52.53,8.87,51.16,32.75,51.16,30.69-26.61,31.37-30-6.14-2.73-6.82-10.23,13,.68,15.69,0,2.73-6.82,3.41-19.1,0-7.5,6.83-14.32,4.77-13.65,6.13-29.34-1.36-15.68,7.51-29.33c6.05-9.3,9.87-10.67,13.68-11.69C874.35,464.94,873.7,450.69,873.37,444.47ZM715,275v10.1s-8,11.38-2.63,10.11,8.09,1.95,10.14,0,10.23-3.31,6.82-6.72-2.73,6.68-6.14-8.6-6.82-16-6.82-16h-5.65s-2.24,4.78,0,6.82S715,268.36,715,275ZM267.49,461.38l-.47-.08c1,2.58,2,7.59-.17,15.49-3.41,12.27-4.09,16.37-8.87,23.19s-8.87,8.18-3.41,13.64,15.69,25.24,29.33,33.43,15,0,17.74,19.78,8.18,75.71,10.23,83.22,7.5,39.56,31.38,47.06c8.86,0,4.77.68,4.09-10.91s-5.46-27.29-1.36-39.56,9.55-22.51,19.78-34.11,18.41-31.38,25.92-36.84,5.45-.68,12.28-15,28.21-47.07-4.65-58.66S363,497.25,361,489.75s-3.41-15.7-4.77-17.4,0-9-11.6-10.8-26.6-8.64-28-16.14-21.82,0-21.82,0l-.69,8.18h-4.77l-.68-11.52s-.69-4.7-4.78,0-6.14,6.07-8.18,7.43c-1.28.85-3.62,2.5-5.2,3.62l.27.07ZM691.81,735.31c-7.5-2-4.77-4.09-6.82-4.77s-6.82,1.36-13,5.45-4.09,3.41-8.87,7.51-8.18,2-16.37,3.41-8.87-.69-15.69-3.41-6.82-4.78-14.32-4.34-8.19,6.38-17,11.16-18.42,0-42.3,0-18.41,0-25.24,2.73-6.82,2-19.78,10.91c-8.36,5.72-15.85,10.58-20.13,13.32a319.31,319.31,0,0,0,55.9,6.23h15a306.46,306.46,0,0,0,149.24-42.29c-2.42-.62-5.48-1.33-9.24-2.06C691.44,736.87,699.31,737.36,691.81,735.31ZM288,412.21c.46-.91.46-1.82,0-3.86s-1.13-1.14-3.63-2.73-3.41-.91-5.92-1.14-4.77-3.18-9.32-4.55-4.77.23-9.09,1.59-7.66,2.25-8.06,3c-1.92,3.41,2.6,3.64,5.33,2.6s3.86-.55,8.41-1,2.5.23,4.44,0,3.06,1.82,5.57,3.64a23.69,23.69,0,0,0,9.09,4.55C290,415.85,287.54,413.12,288,412.21Zm13.19-.23a6.43,6.43,0,0,0-5.45,0c-1.14.69-1.83,2.34-3.19,2.77s-3.41.42-2.73,3.14-4.54,2.51.91,3.64,5.91,1.6,8.87-1.59,4.32-2.89,3.41-5.19S304.14,413.35,301.18,412ZM695.91,283.74c.68-2.73,4.77-4.77,4.77-4.77l2.54-3.94s5.65,1.89,7,7.35,0,0-5.46,8.87-4.77,1.36-6.48,0A8.18,8.18,0,0,1,695.91,283.74ZM379.85,305.85c-7.73,4.55-6.36,0-7.83-3.64s.1-4.09,2.83-6.82a89.64,89.64,0,0,1,11.32,0c3.59.45,3.69-.91,5.52,3.18S387.58,301.3,379.85,305.85Zm122.33-58.26c-4.77,2-10.23,6.14-12.28,3.41s-2-5.23-4.77-6.36-3.41-5.23-3.41-5.23,6.14,2.72,10.91,0,8.87-2.73,9.55,0S507,245.54,502.18,247.59Zm17.6-62.26c-13.09,5.22-16.83,6.15-20.57,10.83s-9.36,0-12.16,5.61-7.49,4.68-4.68,10.29,7.48,6.54,6.55,11.22-1.87,5.61-7.48,6.55-9.36-4.68-12.16,0-7.49,5.62-13.1,8.42-3.74.93-10.29,4.67-8.41-3.72-15,3.75-4.68,15-11.22,12.15-6.81-6.37-4.68-12.16c0,0,6.54-7.48,7.48-15.9s-5.14-29-5.14-29c-12.63-1.87-25.72-10.29-12.63-15s11.22-2.8,23.38-6.54,18.71-4.68,25.25-4.68,5.62,3.74,15,0,10.29-7.48,18.71-6.55,12.16-.93,14,3.75-5.62,2.8,1.87,4.67,12.16.94,12.16.94l4.67,1.87S532.88,180.11,519.78,185.33ZM266.17,370.15c-.5-.13-7.66-.45-14.16-.72a317.35,317.35,0,0,1,51.15-98.05c1.59,6.51,1.45,16,5.3,17.14,4.77,1.36,6.82,2.78,9.55-3.39s5.07-11.62,10-13,6-9.07,6.49-12.72,6.89-7.29,7.46-7.52a15,15,0,0,1,6-2.73c4.09-.91,5.46-2.5,8.19,0s6.14-1.82,5.45,2.73-4.09,3-2.72,7.52,2.72,5.9,6.14,4.53,5-6.34,6.94-4.53,1.24-2.29,1.92,1.81,3.41,4.84,0,7.53-1.8,3.68-1.92,6.26-3.53.53-.12,2.58,4.09-2.19,8.86,2.31,7.51,8.92,3.41,9.78-5.89,3.6-12.15,2.91-9.67.22-15.13.11A40.7,40.7,0,0,0,342,295.24c-3.53,1.47-10.18,3.51-6.17,5.56s22.42-5.46,22.42,0-2,4.09,0,10.23,6.14,6.82-1.36,6.82-10.87-5.46-13.28,0-1.05,14.33-2.41,5.46-6.66-8.87-6.66-8.87-7.66-.46-8.57,2.73.22,8.44-3.42,9.9-5.22-1.26-9.54,2.15-2.5,5.23-5,6.59-3.63-2.5-6.82,0,2.73,3.19-2.05,11.37-13.86,12.74-18.87,15.69-3.41,25-4.77,26.83-5.91,2.73-7.05-2.73,0-6.36.91-9.55S267.07,370.38,266.17,370.15Zm125.52-71.58c1.84,4.09-4.11,2.73-11.84,7.28s-6.36,0-7.83-3.64.1-4.09,2.83-6.82a89.64,89.64,0,0,1,11.32,0C389.76,295.84,389.86,294.48,391.69,298.57ZM791,264c-2.73,3.87,2.27,13.72-2.28,11.07s-8.86-5.84-9-3.11,4.22,6.91,0,8S760,287,756.84,285.13s-7.28-4.72-9.09-10.1-4.1-.75-5,4.89-1.14,5.19-4.44,7-1.48,3.18-4.66,6.36a29.91,29.91,0,0,1-9.1,6.37c-3.63,1.82-6.91-1.36-14.82,1.82s-10.1,3.18-6.51,6.37,24.46,7.54,30.56,7.91l19.62,2.45c3.29-1.36,4.17-3.18,7.36,0s18.93,6.92,18.93,6.92a74.38,74.38,0,0,0,7.62,14.09c5.46,8.19,9.55,4.55,11.82-.45s0-6.94,5-9.38,1.37-7,7.28-12.45,2.27-7.63,9.55-4.5,6.82,3.14,10.46,1.32a11.83,11.83,0,0,0,2.9-2.67,318.82,318.82,0,0,0-32.43-47.72C798.89,262.46,793,261.12,791,264Zm-40.48-26.6c-2,12.28.69,12-4.77,14.55s-9.55.25-6.14,7.52,6.82,6.58,10.91,4.53,7.51-1.33,8.19,1.38-8.19,9.54.68,9.54,8.42,1.36,10.69-4.1,4.32-7,3-11.35-6.59-5.25-3-10.25,5-3.63,8.41-8.41a6.67,6.67,0,0,0,1-2q-8.05-7.94-16.64-15.31a11.79,11.79,0,0,0-5.49,2.33C749.79,231.22,752.52,225.08,750.47,237.36ZM362.35,218.94c-1.66-.41-4.5-1.07-6.49-1.53q7.09-5.73,14.5-11l.85.3c12.28,4.78,18.42,8.19,19.1,10.24s2.73.6,0,6.44-11.59,14-11.59,14-1.37,6.37-2.05,7.28,0,6.82-5.46,4.54-4.77-1.36-7.5-4.54-4.78-.46-7.5-3.87-4.1-1.36,0-3.41,6.14.68,8.18-3.41,2.05-10.61,2.05-10.61S365.07,219.62,362.35,218.94ZM328.24,243.5a6.17,6.17,0,0,1-.14-.86c2.83-2.89,5.7-5.73,8.64-8.51.34.15.68.3,1.05.5,7.5,4.09,5.69,2.73,4.21,6.14s5.34,1.36-1.48,3.41-5.46,1.59-8.87.46S328.92,246.23,328.24,243.5Z" fill="#fff" stroke="#231f20" stroke-miterlimit="10" stroke-width="1.5"/><path d="M378.44,517.6h57.71v24H345.36V512.68l50.54-44.94a95.67,95.67,0,0,0,7.72-7.83,14.91,14.91,0,0,0,3.86-10.19,12.35,12.35,0,0,0-4.78-10.28,17.75,17.75,0,0,0-11.21-3.73q-7.73,0-12,4.73a19,19,0,0,0-4.87,11.65l-27.57-2a43.93,43.93,0,0,1,4.23-17.38A36.48,36.48,0,0,1,361,420.43a40.92,40.92,0,0,1,14.24-7.37A61.3,61.3,0,0,1,393,410.6a54.19,54.19,0,0,1,16.54,2.46,38.57,38.57,0,0,1,13.42,7.27,33.37,33.37,0,0,1,8.91,12.11,41.59,41.59,0,0,1,3.22,16.92,45.38,45.38,0,0,1-1.29,11.19,38.19,38.19,0,0,1-3.58,9.1,41.94,41.94,0,0,1-5.43,7.55,86.56,86.56,0,0,1-6.8,6.73Zm169.17-63.69a129,129,0,0,1,0,46.58A67.79,67.79,0,0,1,540.08,522a44.54,44.54,0,0,1-14.8,15.74q-9.36,6.1-23.89,6.1t-23.89-6.1A44.54,44.54,0,0,1,462.7,522a67.79,67.79,0,0,1-7.53-21.47,129.59,129.59,0,0,1,0-46.58,67.87,67.87,0,0,1,7.53-21.47,44.62,44.62,0,0,1,14.8-15.74q9.38-6.1,23.89-6.1t23.89,6.1a44.62,44.62,0,0,1,14.8,15.74A67.87,67.87,0,0,1,547.61,453.91ZM522.16,477.2q0-5.1-.46-12.19a59.19,59.19,0,0,0-2.48-13.65,28.25,28.25,0,0,0-6.25-11.1q-4.23-4.54-11.58-4.55-7.53,0-11.67,4.55a28.71,28.71,0,0,0-6.15,11.1A59.2,59.2,0,0,0,481.08,465q-.45,7.1-.46,12.19t.46,12.19A59.2,59.2,0,0,0,483.57,503a28.71,28.71,0,0,0,6.15,11.1q4.14,4.54,11.67,4.55,7.35,0,11.58-4.55a28.25,28.25,0,0,0,6.25-11.1,59.19,59.19,0,0,0,2.48-13.65Q522.17,482.3,522.16,477.2Zm199.77-64.42-42.45,35.49L695.1,466.1l26.1-22.75v98.27h26.47V412.78Zm-82.7,71.15a86.56,86.56,0,0,0,6.8-6.73,41.41,41.41,0,0,0,5.42-7.55,37.79,37.79,0,0,0,3.59-9.1,45.4,45.4,0,0,0,1.28-11.19,41.59,41.59,0,0,0-3.21-16.92,33.28,33.28,0,0,0-8.92-12.11,38.53,38.53,0,0,0-13.41-7.27,54.19,54.19,0,0,0-16.54-2.46,61.3,61.3,0,0,0-17.74,2.46,40.84,40.84,0,0,0-14.24,7.37,36.35,36.35,0,0,0-9.74,12.28,43.93,43.93,0,0,0-4.23,17.38l27.57,2a19,19,0,0,1,4.87-11.65q4.31-4.72,12-4.73A17.75,17.75,0,0,1,624,439.44a12.34,12.34,0,0,1,4.77,10.28,14.9,14.9,0,0,1-3.85,10.19,97.31,97.31,0,0,1-7.72,7.83l-50.54,44.94v28.94h90.79v-24H599.72Z" fill="#fff" stroke="#231f20" stroke-miterlimit="10" stroke-width="1.5"/><path d="M658.36,627.22h4.2V596h-3.72l-8.61,7.2,2.45,3,5.68-5.3Zm-34.09,0h20.28v-3.71H629l10.19-9.93c.7-.68,1.37-1.37,2-2.08a15.27,15.27,0,0,0,1.7-2.25,11.59,11.59,0,0,0,1.2-2.54,9.54,9.54,0,0,0-.3-6.66,7.67,7.67,0,0,0-2.1-2.7,9.37,9.37,0,0,0-3.1-1.63,12.56,12.56,0,0,0-3.78-.55,13.48,13.48,0,0,0-3.74.49,8.92,8.92,0,0,0-3.06,1.5,8.65,8.65,0,0,0-2.23,2.53,10,10,0,0,0-1.2,3.6l4.54.4a5.79,5.79,0,0,1,1.89-3.53,5.49,5.49,0,0,1,3.75-1.28,6,6,0,0,1,2.08.35,5.39,5.39,0,0,1,1.7,1,4.64,4.64,0,0,1,1.14,1.57,5.14,5.14,0,0,1,.42,2.07,6,6,0,0,1-.29,1.86,7.94,7.94,0,0,1-.76,1.68,11.5,11.5,0,0,1-1.1,1.52q-.62.72-1.26,1.35l-12.42,12.45Zm-20.56-18a23.78,23.78,0,0,1,.31-2.73,18,18,0,0,1,.68-2.69,9.11,9.11,0,0,1,1.15-2.34,5.49,5.49,0,0,1,1.77-1.66,5.33,5.33,0,0,1,5,0,5.36,5.36,0,0,1,1.76,1.66,8.82,8.82,0,0,1,1.16,2.34,18,18,0,0,1,.68,2.69,23.78,23.78,0,0,1,.31,2.73c0,.9.06,1.7.06,2.41,0,1-.06,2.25-.19,3.67a18,18,0,0,1-.86,4.08,8.74,8.74,0,0,1-1.94,3.33,5.09,5.09,0,0,1-7,0,8.74,8.74,0,0,1-1.94-3.33,18,18,0,0,1-.86-4.08c-.13-1.42-.19-2.64-.19-3.67,0-.71,0-1.51.06-2.41m-3.82,7.71a18.55,18.55,0,0,0,1.61,5.25,11.16,11.16,0,0,0,3.26,4,9.81,9.81,0,0,0,10.71,0,11,11,0,0,0,3.25-4,18.25,18.25,0,0,0,1.62-5.25,35,35,0,0,0,.44-5.3q0-1.73-.18-3.57a23.6,23.6,0,0,0-.63-3.65,20.72,20.72,0,0,0-1.22-3.42,9.94,9.94,0,0,0-2-2.84,9.32,9.32,0,0,0-2.84-2,10.39,10.39,0,0,0-7.65,0,9.32,9.32,0,0,0-2.84,2,9.94,9.94,0,0,0-2,2.84,19.84,19.84,0,0,0-1.22,3.42,22.47,22.47,0,0,0-.63,3.65q-.18,1.85-.18,3.57a35,35,0,0,0,.44,5.3m-24.21,10.33H596v-3.71H580.39l10.19-9.93c.7-.68,1.37-1.37,2-2.08a16.08,16.08,0,0,0,1.71-2.25,12.58,12.58,0,0,0,1.2-2.54,9.07,9.07,0,0,0,.45-2.89,8.69,8.69,0,0,0-.76-3.77,7.67,7.67,0,0,0-2.1-2.7,9.27,9.27,0,0,0-3.1-1.63,12.56,12.56,0,0,0-3.78-.55,13.53,13.53,0,0,0-3.74.49,8.92,8.92,0,0,0-3.06,1.5,8.8,8.8,0,0,0-2.23,2.53,10.19,10.19,0,0,0-1.2,3.6l4.55.4a5.78,5.78,0,0,1,1.88-3.53,5.51,5.51,0,0,1,3.76-1.28,6,6,0,0,1,2.07.35,5.44,5.44,0,0,1,1.71,1,4.48,4.48,0,0,1,1.13,1.57,5,5,0,0,1,.42,2.07,6,6,0,0,1-.29,1.86,7.47,7.47,0,0,1-.76,1.68,12.4,12.4,0,0,1-1.09,1.52,18.2,18.2,0,0,1-1.27,1.35l-12.41,12.45Zm-26.92-27.28h6.29a13.07,13.07,0,0,1,6.12,1.25,10.9,10.9,0,0,1,3.69,3.07,10.54,10.54,0,0,1,1.81,3.82,15.46,15.46,0,0,1,.49,3.51,11.67,11.67,0,0,1-1,5.1,10.46,10.46,0,0,1-2.84,3.64,12.35,12.35,0,0,1-4.18,2.19,17.35,17.35,0,0,1-5,.72h-5.29Zm-4.2,27.28h10.1a18.93,18.93,0,0,0,7.32-1.33,15.87,15.87,0,0,0,5.31-3.51,14.79,14.79,0,0,0,3.23-5,15.85,15.85,0,0,0,1.09-5.81,17.76,17.76,0,0,0-.31-3.18,16.54,16.54,0,0,0-1-3.44,15.73,15.73,0,0,0-1.9-3.36,12.83,12.83,0,0,0-3-2.89,15.41,15.41,0,0,0-4.28-2,19.78,19.78,0,0,0-5.74-.75h-10.8Zm-31.68,0h4.19V612.91h16v14.31h4.2V596h-4.2v13h-16V596h-4.19Zm-36.93,0h4.46l7.43-25.52h.08l7.48,25.52h4.46l9-31.26h-4.37l-6.84,25h-.09l-7.28-25h-4.8l-7.28,25h-.09l-6.84-25H466.9Zm-18.27-18.81-.87,6.36h-5.12l.88-6.36Zm-11.1,18.81H450l1.22-9h5.12l-1.23,9h3.41l1.23-9h4.63v-3.44h-4.15l.87-6.36h4.63V605h-4.15l1.23-9h-3.41l-1.23,9h-5.11l1.22-9h-3.4l-1.23,9H445v3.44h4.15l-.87,6.36h-4.64v3.44h4.15Z" fill="#fff" stroke="#231f20" stroke-miterlimit="10" stroke-width="1.5"/><path d="M738.53,381.79h-19l28-54.38H714.37v-15h51.79v13.75Zm-42.23,0H680.55V331.4l-12.83,11.18-9.44-10.78,23.25-19.43H696.3Zm-73.42,0H578.13V312.37H595v53.8h27.84Zm-58.1,0H547.87V312.37h16.91Zm-92.49-57.51a15.86,15.86,0,0,0-5.27-5.95,22.28,22.28,0,0,0-7.91-3.15,49.84,49.84,0,0,0-9.83-.94h-24.4v65.67H438V353.58H450a46.72,46.72,0,0,0,9.83-1,20.78,20.78,0,0,0,7.65-3.24,15.36,15.36,0,0,0,5-6,21.93,21.93,0,0,0,1.84-9.51A20.49,20.49,0,0,0,472.29,324.28Zm-14.43,13a5.81,5.81,0,0,1-2.08,2.15,9.39,9.39,0,0,1-3.08,1.17A18,18,0,0,1,449,341h-9.08V326.84h6.77c1.36,0,2.82.08,4.33.23a12.35,12.35,0,0,1,3.9,1,7.06,7.06,0,0,1,2.73,2.15,5.77,5.77,0,0,1,1,3.58A6.89,6.89,0,0,1,457.86,337.3Zm63.62,14.35,1.34-.25c4.55-.84,8-2.85,10.4-6a18.86,18.86,0,0,0,3.57-11.6,20.38,20.38,0,0,0-2-9.44,15.8,15.8,0,0,0-5.28-5.95,22.47,22.47,0,0,0-7.87-3.2,45.64,45.64,0,0,0-9.68-1H486.54v65.67H499.7v-27h8.92l14.26,27h15.78Zm-1.3-14.22a6.12,6.12,0,0,1-2.64,1.95,12.75,12.75,0,0,1-3.81.8c-1.47.09-2.89.14-4.23.14h-7.93V326.84h8.89a31,31,0,0,1,4,.27,11.46,11.46,0,0,1,3.47,1,6.1,6.1,0,0,1,2.34,2,6.26,6.26,0,0,1,.89,3.57A5.88,5.88,0,0,1,520.18,337.43ZM387.07,312.37H373.41l-30.3,69.42h18.64l5.69-14.31h25.23l5.87,14.31h19Zm-16.93,42.51,9.66-24.47,9.78,24.47Z" fill="#fff" stroke="#231f20" stroke-miterlimit="10" stroke-width="1.5"/></g></svg>