<?xml version="1.0" encoding="utf-8"?>
<!-- Generator: Adobe Illustrator 26.0.0, SVG Export Plug-In . SVG Version: 6.00 Build 0)  -->
<svg version="1.1" id="Layer_1" xmlns:serif="http://www.serif.com/"
	 xmlns="http://www.w3.org/2000/svg" xmlns:xlink="http://www.w3.org/1999/xlink" x="0px" y="0px" viewBox="0 0 993.6 993.6"
	 style="enable-background:new 0 0 993.6 993.6;" xml:space="preserve">
<style type="text/css">
	.st0{fill:#FFFFFF;}
	.st1{enable-background:new    ;}
</style>
<g>
	<g transform="matrix(1,0,0,1,1068.66,567.675)">
		<g>
			<path class="st0" d="M-571.9,425.9c-67.1,0-132.1-13.1-193.4-39c-59.2-25-112.3-60.8-157.9-106.5
				c-45.6-45.6-81.4-98.7-106.5-157.9c-25.9-61.3-39-126.3-39-193.4c0-67.1,13.1-132.1,39-193.4c25-59.2,60.8-112.3,106.5-157.9
				c45.6-45.6,98.8-81.4,157.9-106.5c61.3-25.9,126.3-39,193.4-39s132.1,13.1,193.4,39c59.2,25,112.3,60.8,157.9,106.5
				c45.6,45.6,81.4,98.7,106.5,157.9c25.9,61.3,39,126.3,39,193.4c0,67.1-13.1,132.1-39,193.4c-25,59.2-60.8,112.3-106.5,157.9
				c-45.6,45.6-98.8,81.4-157.9,106.5C-439.7,412.8-504.8,425.9-571.9,425.9z M-571.9-541.5c-259.5,0-470.6,211.1-470.6,470.6
				c0,259.5,211.1,470.6,470.6,470.6s470.6-211.1,470.6-470.6C-101.2-330.4-312.4-541.5-571.9-541.5z"/>
		</g>
	</g>
	<g>
		<g class="st1">
			<path class="st0" d="M195.2,611.2c26.4,0,46.6,9,46.6,41.3c0,32.3-20.3,41.4-46.6,41.4h-22.8v-82.6H195.2z M194.6,622.8h-7.5
				v59.4h7.5c16,0,32.1-3.6,32.1-29.8C226.7,626.4,210.6,622.8,194.6,622.8z"/>
			<path class="st0" d="M292.8,695.3c-24.5,0-39.8-17.4-39.8-42.9c0-25.5,15.3-42.7,39.8-42.7s39.8,17.2,39.8,42.7
				C332.6,677.9,317.3,695.3,292.8,695.3z M292.8,683.5c13.8,0,24.8-10.8,24.8-31c0-20.1-10.9-30.9-24.8-30.9S268,632.4,268,652.5
				C268,672.7,279,683.5,292.8,683.5z"/>
			<path class="st0" d="M410.1,675.2l12.7-64h15.3l-19.5,82.6h-17.3l-14-63.4l-13.8,63.4H356l-19.6-82.6h15.9l13.4,63.8l13.2-63.8
				h16.9L410.1,675.2z"/>
			<path class="st0" d="M496.8,693.9l-35.3-66v66h-14.2v-82.6h19.6l35.3,66v-66h14.2v82.6H496.8z"/>
			<path class="st0" d="M547.8,681.7h42v12.2h-56.7v-82.6h14.6V681.7z"/>
			<path class="st0" d="M628.6,695.3c-24.5,0-39.8-17.4-39.8-42.9c0-25.5,15.3-42.7,39.8-42.7s39.8,17.2,39.8,42.7
				C668.5,677.9,653.2,695.3,628.6,695.3z M628.6,683.5c13.8,0,24.8-10.8,24.8-31c0-20.1-10.9-30.9-24.8-30.9
				c-13.8,0-24.8,10.8-24.8,30.9C603.9,672.7,614.8,683.5,628.6,683.5z"/>
			<path class="st0" d="M700,611.2h15.4l31.3,82.6h-16l-6.6-18.4h-33.9l-6.4,18.4h-15L700,611.2z M694.6,663.4h25.2L707.2,628
				L694.6,663.4z"/>
			<path class="st0" d="M778,611.2c26.4,0,46.6,9,46.6,41.3c0,32.3-20.3,41.4-46.6,41.4h-22.8v-82.6H778z M777.3,622.8h-7.5v59.4
				h7.5c16,0,32.1-3.6,32.1-29.8C809.4,626.4,793.3,622.8,777.3,622.8z"/>
		</g>
		<g>
			<g>
				<path class="st0" d="M618.2,405v86.7H375.4V405h-34.7v86.7c0,19.2,15.5,34.7,34.7,34.7h242.7c19.2,0,34.7-15.5,34.7-34.7V405
					H618.2z"/>
			</g>
			<g>
				<path class="st0" d="M496.8,457l86.7-104h-69.4V214.3h-34.7V353h-69.4L496.8,457z"/>
			</g>
		</g>
	</g>
</g>
</svg>
