<?xml version="1.0" encoding="utf-8"?>
<!-- Generator: Adobe Illustrator 26.0.0, SVG Export Plug-In . SVG Version: 6.00 Build 0)  -->
<svg version="1.1" id="Layer_1" xmlns:serif="http://www.serif.com/"
	 xmlns="http://www.w3.org/2000/svg" xmlns:xlink="http://www.w3.org/1999/xlink" x="0px" y="0px" viewBox="0 0 993.6 993.6"
	 style="enable-background:new 0 0 993.6 993.6;" xml:space="preserve">
<style type="text/css">
	.st0{fill:#FFFFFF;}
	.st1{enable-background:new    ;}
</style>
<g transform="matrix(1,0,0,1,1108.67,498.174)">
	<g>
		<path class="st0" d="M-611.9,495.4c-67.1,0-132.1-13.1-193.4-39c-59.2-25-112.3-60.8-157.9-106.5
			c-45.6-45.6-81.4-98.7-106.5-157.9c-25.9-61.3-39-126.3-39-193.4c0-67.1,13.1-132.1,39-193.4c25-59.2,60.8-112.3,106.5-157.9
			c45.6-45.6,98.8-81.4,157.9-106.5c61.3-25.9,126.3-39,193.4-39s132.1,13.1,193.4,39c59.2,25,112.3,60.8,157.9,106.5
			c45.6,45.6,81.4,98.7,106.5,157.9c25.9,61.3,39,126.3,39,193.4c0,67.1-13.1,132.1-39,193.4c-25,59.2-60.8,112.3-106.5,157.9
			c-45.6,45.6-98.8,81.4-157.9,106.5C-479.7,482.3-544.8,495.4-611.9,495.4z M-611.9-472c-259.5,0-470.6,211.1-470.6,470.6
			c0,259.5,211.1,470.6,470.6,470.6S-141.3,258.1-141.3-1.4C-141.3-260.9-352.4-472-611.9-472z"/>
	</g>
</g>
<g class="st1">
	<path class="st0" d="M296.5,612.7h59.1v12.1h-44.4v22.1h42v12h-42v24.3h44.4v12.2h-59.1V612.7z"/>
	<path class="st0" d="M416.8,695.3l-35.3-66v66h-14.2v-82.6h19.6l35.3,66v-66h14.2v82.6H416.8z"/>
	<path class="st0" d="M460.8,612.7l21.2,65.5l20.6-65.5H518l-28.6,82.6h-15.7l-28.9-82.6H460.8z"/>
	<path class="st0" d="M541.1,695.3h-14.6v-82.6h14.6V695.3z"/>
	<path class="st0" d="M580.6,612.7h15.4l31.3,82.6h-16l-6.6-18.4H571l-6.4,18.4h-15L580.6,612.7z M575.2,664.9h25.2l-12.7-35.5
		L575.2,664.9z"/>
	<path class="st0" d="M668.9,660.4c-1.4,0.1-2.9,0.1-4.4,0.1h-14.2v34.8h-14.6v-82.6h26.6c24.5,0,37.2,5.5,37.2,23.8
		c0,10.6-5.2,17.8-15.7,21.3l19.1,37.5h-16.5L668.9,660.4z M650.4,624.3V649h14.5c12.5,0,19.7-2.5,19.7-12.4
		c0-10.8-8.6-12.3-20.2-12.3H650.4z"/>
</g>
<g transform="matrix(1,0,0,1,1119.51,529.518)">
	<g>
		<path class="st0" d="M-471.1-331.6c-2.6-2.6-6.4-3.3-9.8-2l-290.5,116.2c-3.3,1.3-5.6,4.5-5.7,8.1c-0.1,3.6,1.9,6.9,5.1,8.5
			l114.5,55.6l55.6,114.5c1.5,3.1,4.7,5.1,8.1,5.1h0.3c3.6-0.1,6.7-2.4,8.1-5.7l116.2-290.5C-467.7-325.2-468.5-329.1-471.1-331.6
			 M-515-300.5l-137.4,137.4l-93.2-45.2L-515-300.5z M-594.5-57.1l-45.2-93.2l137.4-137.4L-594.5-57.1z"/>
	</g>
</g>
</svg>
