<svg xmlns="http://www.w3.org/2000/svg" viewBox="0 0 880.7 321.15"><defs><style>.cls-1{fill:#c3a3cd;}.cls-2{fill:#652681;}.cls-3{fill:#fddf00;}</style></defs><g id="Layer_2" data-name="Layer 2"><g id="Layer_1-2" data-name="Layer 1"><path class="cls-1" d="M842.78,321.15H37.92A38,38,0,0,1,0,283.23V0H842.78A38,38,0,0,1,880.7,37.92V283.23A38,38,0,0,1,842.78,321.15ZM10.62,10.62V283.23a27.34,27.34,0,0,0,27.3,27.3H842.78a27.34,27.34,0,0,0,27.3-27.3V37.92a27.34,27.34,0,0,0-27.3-27.3Z"/><path class="cls-1" d="M102.07,72.49v52.09h22.66V72.49h37v142h-37V156H102.07v58.46h-37v-142Z"/><path class="cls-1" d="M181.6,109.57q2.58-14,8.55-22.87a34.82,34.82,0,0,1,15.71-12.92q9.73-4.08,23.86-4.08t23.86,4.08A34.87,34.87,0,0,1,269.29,86.7q6,8.85,8.55,22.87a190.66,190.66,0,0,1,2.58,33.9q0,19.89-2.58,33.9t-8.55,22.87a33,33,0,0,1-15.71,12.63q-9.75,3.76-23.86,3.78t-23.86-3.78a32.94,32.94,0,0,1-15.71-12.63q-6-8.85-8.55-22.87T179,143.47A190.66,190.66,0,0,1,181.6,109.57Zm36,57.66a84.81,84.81,0,0,0,1.69,15q1.29,5.56,3.78,7.75a11.22,11.22,0,0,0,13.32,0q2.49-2.19,3.78-7.75a85.77,85.77,0,0,0,1.69-15q.39-9.43.4-23.76t-.4-23.76a85.75,85.75,0,0,0-1.69-15q-1.29-5.57-3.78-7.76a11.26,11.26,0,0,0-13.32,0q-2.49,2.19-3.78,7.76a84.8,84.8,0,0,0-1.69,15q-.41,9.45-.4,23.76T217.59,167.23Z"/><path class="cls-1" d="M378.65,170.12q0,25.65-11.73,36.09t-34.6,10.44q-23.26,0-33.2-11.54t-9.95-33.8v-3h33.41v7q0,10.14,2.68,13.52a8.65,8.65,0,0,0,13.72,0q2.68-3.39,2.69-13.52V72.49h37Z"/><path class="cls-1" d="M481.45,72.49v30.22H434.32V127h44.15v29H434.32v28.23h48.92v30.23h-85.9v-142Z"/><path class="cls-1" d="M640.52,72.49v30.22H593.4V127h44.14v29H593.4v28.23h48.91v30.23h-85.9v-142ZM625,33.51l-19.09,29H582.86l8.75-29Z"/><path class="cls-1" d="M713.89,109.57q2.58-14,8.55-22.87a34.82,34.82,0,0,1,15.71-12.92Q747.89,69.7,762,69.7t23.86,4.08A34.82,34.82,0,0,1,801.58,86.7q6,8.85,8.55,22.87a190.56,190.56,0,0,1,2.59,33.9,190.4,190.4,0,0,1-2.59,33.9q-2.58,14-8.55,22.87a32.94,32.94,0,0,1-15.71,12.63q-9.74,3.76-23.86,3.78t-23.86-3.78a32.94,32.94,0,0,1-15.71-12.63q-6-8.85-8.55-22.87t-2.58-33.9A190.66,190.66,0,0,1,713.89,109.57Zm36,57.66a85.77,85.77,0,0,0,1.69,15q1.29,5.56,3.78,7.75a11.22,11.22,0,0,0,13.32,0q2.49-2.19,3.78-7.75a85.77,85.77,0,0,0,1.69-15q.4-9.43.4-23.76t-.4-23.76a85.75,85.75,0,0,0-1.69-15q-1.29-5.57-3.78-7.76a11.26,11.26,0,0,0-13.32,0q-2.49,2.19-3.78,7.76a85.75,85.75,0,0,0-1.69,15q-.39,9.45-.39,23.76T749.88,167.23Z"/><path class="cls-2" d="M579.05,246V143.06h50.43c16.36.28,28.19,5.61,35.07,15.84,6.65,10.12,10,22.08,9.89,35.49.24,33.61-16.91,51-51,51.61H579.05Zm30.69-26.33h12c4.85,0,8.76-.93,11.62-2.75a19.44,19.44,0,0,0,6.62-6.64,30.73,30.73,0,0,0,3-8.27l.05-.27a52.73,52.73,0,0,0,.66-7.78c0-1.78-.13-4-.39-6.66l0-.2,0-.2a22.26,22.26,0,0,0-3.17-7.84,19.89,19.89,0,0,0-7.31-7c-3.32-1.81-7.73-2.69-13.26-2.69h-9.83Z"/><path class="cls-3" d="M670.9,190.84q.14-20.21-9.89-35.48-10.38-15.42-35.08-15.85H575.51v103h44.42Q671.25,241.47,670.9,190.84Zm-31.37,7.49a30.12,30.12,0,0,1-3.07,8.4,19.39,19.39,0,0,1-6.63,6.64q-4.3,2.76-11.61,2.76h-12V165.84H616q8.34,0,13.25,2.68a19.91,19.91,0,0,1,7.31,7,21.92,21.92,0,0,1,3.21,8q.42,4.1.42,6.85A52.27,52.27,0,0,1,639.53,198.33Z"/><rect class="cls-2" x="680.56" y="143.06" width="30.69" height="102.94"/><rect class="cls-3" x="677.02" y="139.51" width="30.69" height="102.94"/><rect class="cls-2" x="720.6" y="143.06" width="30.69" height="102.94"/><rect class="cls-3" x="717.06" y="139.51" width="30.69" height="102.94"/><path class="cls-3" d="M793.69,238.58c-.19-1.42-.38-2.94-.57-4.55h-.28a15.13,15.13,0,0,1-6.75,7.67,21.45,21.45,0,0,1-10.59,2.56,28.59,28.59,0,0,1-9.88-1.49,15.62,15.62,0,0,1-6.61-4.48,18.11,18.11,0,0,1-3.7-7.1,34.1,34.1,0,0,1-1.13-9.1,36.55,36.55,0,0,1,1.06-9.38,17.76,17.76,0,0,1,3.49-6.89,19.81,19.81,0,0,1,6.53-5,47.09,47.09,0,0,1,10.24-3.48l10.09-2.42q4.13-1,5.83-2.91a8,8,0,0,0,1.7-5.47q0-7.11-6.54-7.11-3.69,0-5.4,2.06t-1.85,8.17H757.16q0-8.38,3-13.43a22.64,22.64,0,0,1,7.39-7.82,26.75,26.75,0,0,1,9.52-3.69,53.42,53.42,0,0,1,9.52-.92,66.17,66.17,0,0,1,12.3,1.06,25.19,25.19,0,0,1,9.66,3.84,18.19,18.19,0,0,1,6.26,7.53,29.63,29.63,0,0,1,2.2,12.3v37.52a91.8,91.8,0,0,0,.43,9.52,19.32,19.32,0,0,0,2,7.11H794.69A19.83,19.83,0,0,1,793.69,238.58Zm-2.42-14.22q1.85-3.12,1.85-9.52V205.6h-.28a5,5,0,0,1-3.49,1.92,20,20,0,0,0-5.18,1.64,8.22,8.22,0,0,0-4.12,3.76,14.28,14.28,0,0,0-1.14,6.19,10,10,0,0,0,1.7,6.11,5.43,5.43,0,0,0,4.55,2.27C788,227.49,790,226.45,791.27,224.36Z"/></g></g></svg>