<svg xmlns="http://www.w3.org/2000/svg" xmlns:xlink="http://www.w3.org/1999/xlink" viewBox="0 0 90.02 31.96"><defs><clipPath id="clip-path"><rect width="90.02" height="31.96" fill="none"/></clipPath></defs><title>logo</title><g id="Layer_2" data-name="Layer 2"><g id="Layer_2-2" data-name="Layer 2"><g clip-path="url(#clip-path)"><path d="M20.06,32a10.75,10.75,0,0,1-9.8-6.06c-.07.15-.1.23-.1.23l-.81,2-1.8-1.21L0,21.82l1.1-1.47A51.08,51.08,0,0,1,12.32,10.13,57.24,57.24,0,0,1,44.89,0,57.85,57.85,0,0,1,77.57,10.12,51.86,51.86,0,0,1,88.89,20.33L90,21.81l-9.34,6.26-.82-2-.07-.15c-2.15,4.67-6.94,6-9.88,6Z" fill="#fff"/><path d="M44.89,1.76A55.29,55.29,0,0,0,2.51,21.4l6,4.07A30.11,30.11,0,0,1,10.92,21,7.61,7.61,0,0,0,11,22.15c1.06,8.25,9.08,8.06,9.08,8.06H69.84s8.13.22,9.19-8a7.12,7.12,0,0,0,.09-1.08,30.24,30.24,0,0,1,2.37,4.32l6-4A56,56,0,0,0,44.89,1.76" fill="#ed1c24"/><path d="M77.8,22.06a7.88,7.88,0,0,1-8.06,6.31H20.08a7.78,7.78,0,0,1-8-6.38,5,5,0,0,1,.59-3.65c5-6.61,15-15.49,32.16-15.49,17.34,0,27.37,9,32.39,15.63a4.6,4.6,0,0,1,.54,3.58" fill="#fff"/><path d="M71.39,22.27s-.53.25-.76,0,0-.68,0-.68l2.24-4.72H70.56l-.35.63c-1.34-1.18-3.85-.57-5.41,1.06a5.12,5.12,0,0,0-1.48,3,7.34,7.34,0,0,1-1.23.64s-.53.25-.76,0,0-.69,0-.69l4-8.19H63l-2.1,4.1c-1.33-1.17-3.84-.56-5.4,1.07a5.55,5.55,0,0,0-.8,1h0a.26.26,0,0,0-.05.09l-.15.25a4.89,4.89,0,0,1-2.78,2.51c-3.28,1-3.64-.62-3.64-.62,3.65-1.35,5-3,4.91-4.19s-1.81-1.28-1.81-1.28A5.8,5.8,0,0,0,45.44,20a3.51,3.51,0,0,0-.12,1.72,6,6,0,0,1-1.75.68c-.93.29-1-.14-1.15-.41s-.52-2.63-.52-2.63l3.89-2.54H43.41L40.49,18.6c-.66.27-.41-.42-.41-.42l2.38-4.83H40.17l-3.86,7.84a16.52,16.52,0,0,1-2,1s-.53.25-.76,0,0-.69,0-.69l2.26-4.72H33.49l-.35.63c-1.34-1.17-3.85-.56-5.41,1.07s-1.95,3.77-.88,4.79c.85.82,2.38.66,3.75-.26,0,0,.35-.3.54.05s1,1.19,2.8.47a13.45,13.45,0,0,0,1.56-.74l-.48,1h2.29l1.14-2.31,1-.64s.3-.24.42.27a16.51,16.51,0,0,0,.69,2.2c.19.26.58.83,2.18.37a27.21,27.21,0,0,0,3-1.05c.54.75,1.57,1.25,3.28,1.25a7.91,7.91,0,0,0,5-1.82,2,2,0,0,0,.59,1.25c.85.82,2.39.66,3.77-.26,0,0,.34-.3.53.05s1,1.19,2.8.47a9.91,9.91,0,0,0,1.76-.89,1.67,1.67,0,0,0,.44.67c.85.82,2.39.67,3.77-.26,0,0,.34-.3.53,0s1,1.19,2.8.47a6.05,6.05,0,0,0,2.33-1.36l-.45-.81a6.71,6.71,0,0,1-1.5.82M31.68,20.92c-.79,1.11-1.91,1.67-2.51,1.25s-.42-1.66.38-2.77,1.89-1.68,2.49-1.25.42,1.66-.36,2.77m16.22-.81a4.09,4.09,0,0,1,2.18-2.42s.47-.16.72,0c0,0,.36.34-.06,1a5.34,5.34,0,0,1-2.29,1.93s-.89.39-.55-.54m11.55.81c-.79,1.11-1.91,1.67-2.5,1.25s-.44-1.66.36-2.77,1.91-1.68,2.5-1.25.43,1.66-.36,2.77m9.29,0c-.78,1.12-1.9,1.68-2.49,1.25s-.43-1.66.36-2.77,1.91-1.67,2.5-1.26.43,1.66-.37,2.78" fill="#ed1c24"/></g><polygon points="30.39 15.17 31.21 13.39 20.6 13.39 19.77 15.17 23.88 15.17 19.62 23.83 22.37 23.83 26.63 15.17 30.39 15.17" fill="#ed1c24"/></g></g></svg>