<?xml version="1.0" encoding="UTF-8" standalone="no"?>
<!DOCTYPE svg PUBLIC "-//W3C//DTD SVG 1.1//EN" "http://www.w3.org/Graphics/SVG/1.1/DTD/svg11.dtd">
<svg width="100%" height="100%" viewBox="0 0 66 66" version="1.1" xmlns="http://www.w3.org/2000/svg" xmlns:xlink="http://www.w3.org/1999/xlink" xml:space="preserve" xmlns:serif="http://www.serif.com/" style="fill-rule:evenodd;clip-rule:evenodd;">
    <g transform="matrix(1,0,0,1,-1035.8,-564.381)">
        <g transform="matrix(1,0,0,1,1068.66,567.675)">
            <path d="M0,59.119C16.325,59.119 29.56,45.885 29.56,29.559C29.56,13.234 16.325,0 0,0C-16.325,0 -29.56,13.234 -29.56,29.559C-29.56,45.885 -16.325,59.119 0,59.119Z" style="fill:none;fill-rule:nonzero;stroke:white;stroke-width:1.6px;"/>
        </g>
        <g transform="matrix(1.01001,0,0,1,1036.79,566.876)">
            <text x="9.983px" y="41.791px" style="font-family:'AvenirLTStd-Black', 'Avenir LT Std', sans-serif;font-weight:750;font-size:6.976px;fill:white;">PA<tspan x="20.168px 25.192px 29.824px 32.517px 36.891px 42.813px 48.611px " y="41.791px 41.791px 41.791px 41.791px 41.791px 41.791px 41.791px ">RTILHAR</tspan></text>
        </g>
        <g transform="matrix(1,0,0,1,1074.62,585.215)">
            <path d="M0,6.039C-1.178,6.039 -2.224,6.611 -2.876,7.492L-8.49,4.623C-8.395,4.303 -8.345,3.965 -8.345,3.615C-8.345,3.141 -8.438,2.688 -8.606,2.274L-2.722,-1.261C-2.066,-0.49 -1.089,-0.001 0,-0.001C1.972,-0.001 3.576,-1.605 3.576,-3.577C3.576,-5.549 1.972,-7.153 0,-7.153C-1.972,-7.153 -3.576,-5.549 -3.576,-3.577C-3.576,-3.121 -3.49,-2.685 -3.334,-2.284L-9.232,1.26C-9.888,0.512 -10.85,0.039 -11.921,0.039C-13.893,0.039 -15.497,1.643 -15.497,3.615C-15.497,5.587 -13.893,7.191 -11.921,7.191C-10.724,7.191 -9.663,6.6 -9.013,5.695L-3.416,8.555C-3.52,8.89 -3.576,9.246 -3.576,9.615C-3.576,11.587 -1.972,13.192 0,13.192C1.972,13.192 3.576,11.587 3.576,9.615C3.576,7.643 1.972,6.039 0,6.039M0,-5.961C1.315,-5.961 2.384,-4.892 2.384,-3.577C2.384,-2.263 1.315,-1.193 0,-1.193C-1.315,-1.193 -2.384,-2.263 -2.384,-3.577C-2.384,-4.892 -1.315,-5.961 0,-5.961M-11.921,5.999C-13.236,5.999 -14.305,4.93 -14.305,3.615C-14.305,2.3 -13.236,1.231 -11.921,1.231C-10.606,1.231 -9.537,2.3 -9.537,3.615C-9.537,4.93 -10.606,5.999 -11.921,5.999M0,11.999C-1.315,11.999 -2.384,10.93 -2.384,9.615C-2.384,8.301 -1.315,7.231 0,7.231C1.315,7.231 2.384,8.301 2.384,9.615C2.384,10.93 1.315,11.999 0,11.999" style="fill:white;fill-rule:nonzero;"/>
        </g>
    </g>
</svg>
